<?xml version="1.0" encoding="UTF-8"?><svg id="a" xmlns="http://www.w3.org/2000/svg" viewBox="0 0 1576 1280"><path d="M1576,152c-44.67,65.33-98.67,121-162,167,.67,9.33,1,23.33,1,42,0,86.67-12.67,173.17-38,259.5s-63.83,169.17-115.5,248.5-113.17,149.5-184.5,210.5-157.33,109.67-258,146-208.33,54.5-323,54.5c-180.67,0-346-48.33-496-145,23.33,2.67,49.33,4,78,4,150,0,283.67-46,401-138-70-1.33-132.67-22.83-188-64.5s-93.33-94.83-114-159.5c22,3.33,42.33,5,61,5,28.67,0,57-3.67,85-11-74.67-15.33-136.5-52.5-185.5-111.5s-73.5-127.5-73.5-205.5v-4c45.33,25.33,94,39,146,41-44-29.33-79-67.67-105-115s-39-98.67-39-154c0-58.67,14.67-113,44-163,80.67,99.33,178.83,178.83,294.5,238.5,115.67,59.67,239.5,92.83,371.5,99.5-5.33-25.33-8-50-8-74,0-89.33,31.5-165.5,94.5-228.5S1001.67,0,1091,0s172,34,236,102c72.67-14,141-40,205-78-24.67,76.67-72,136-142,178,62-6.67,124-23.33,186-50Z" style="fill:#e8e8e8;"/></svg>