<?xml version="1.0" encoding="UTF-8"?><svg id="a" xmlns="http://www.w3.org/2000/svg" viewBox="0 0 511 511"><path d="M510.5,150.24c-1.2-27.15-5.59-45.82-11.88-61.99-6.49-17.17-16.47-32.54-29.55-45.32-12.78-12.98-28.25-23.06-45.22-29.45-16.27-6.29-34.84-10.68-61.99-11.88C334.51,.3,325.83,0,256.45,0s-78.06,.3-105.31,1.5c-27.15,1.2-45.82,5.59-61.99,11.88-17.17,6.49-32.54,16.47-45.32,29.55-12.98,12.78-23.06,28.25-29.45,45.22-6.29,16.27-10.68,34.84-11.88,61.99-1.3,27.35-1.6,36.04-1.6,105.42s.3,78.06,1.5,105.31c1.2,27.15,5.59,45.82,11.88,61.99,6.49,17.17,16.57,32.54,29.55,45.32,12.78,12.98,28.25,23.06,45.22,29.45,16.27,6.29,34.84,10.68,61.99,11.88,27.25,1.2,35.94,1.5,105.31,1.5s78.06-.3,105.31-1.5c27.15-1.2,45.82-5.59,61.99-11.88,34.34-13.28,61.49-40.43,74.77-74.77,6.29-16.27,10.68-34.84,11.88-61.99,1.2-27.25,1.5-35.94,1.5-105.31s-.1-78.06-1.3-105.31Zm-46.02,208.63c-1.1,24.96-5.29,38.43-8.79,47.42-8.59,22.26-26.25,39.93-48.52,48.52-8.98,3.49-22.56,7.69-47.42,8.78-26.95,1.2-35.04,1.5-103.22,1.5s-76.37-.3-103.22-1.5c-24.96-1.1-38.43-5.29-47.42-8.78-11.08-4.09-21.16-10.58-29.35-19.07-8.49-8.29-14.97-18.27-19.07-29.35-3.49-8.98-7.69-22.56-8.78-47.42-1.2-26.95-1.5-35.04-1.5-103.22s.3-76.37,1.5-103.22c1.1-24.96,5.29-38.43,8.78-47.42,4.09-11.08,10.58-21.16,19.17-29.35,8.28-8.49,18.26-14.97,29.35-19.06,8.98-3.49,22.56-7.69,47.42-8.79,26.95-1.2,35.04-1.5,103.22-1.5s76.37,.3,103.22,1.5c24.96,1.1,38.43,5.29,47.42,8.79,11.08,4.09,21.16,10.58,29.35,19.06,8.49,8.29,14.97,18.27,19.07,29.35,3.49,8.98,7.69,22.56,8.79,47.42,1.2,26.95,1.5,35.04,1.5,103.22s-.3,76.17-1.5,103.12Z" style="fill:#e8e8e8;"/><path d="M256.45,124.28c-72.47,0-131.27,58.79-131.27,131.27s58.8,131.27,131.27,131.27,131.27-58.79,131.27-131.27-58.79-131.27-131.27-131.27Zm0,216.42c-47.01,0-85.15-38.13-85.15-85.15s38.14-85.15,85.15-85.15,85.15,38.13,85.15,85.15-38.13,85.15-85.15,85.15Z" style="fill:#e8e8e8;"/><path d="M423.56,119.09c0,16.92-13.72,30.65-30.65,30.65s-30.65-13.72-30.65-30.65,13.72-30.65,30.65-30.65,30.65,13.72,30.65,30.65Z" style="fill:#e8e8e8;"/></svg>