<?xml version="1.0" encoding="UTF-8"?><svg id="a" xmlns="http://www.w3.org/2000/svg" viewBox="0 0 682 682"><path d="M647.18,181.19c-7.37-27.39-28.96-48.98-56.35-56.36-50.03-13.69-250.17-13.69-250.17-13.69,0,0-200.13,0-250.16,13.17-26.86,7.37-48.98,29.49-56.35,56.88-13.17,50.03-13.17,153.78-13.17,153.78,0,0,0,104.28,13.17,153.78,7.38,27.39,28.96,48.98,56.36,56.36,50.56,13.69,250.17,13.69,250.17,13.69,0,0,200.13,0,250.16-13.17,27.39-7.37,48.98-28.96,56.36-56.35,13.16-50.03,13.16-153.78,13.16-153.78,0,0,.53-104.28-13.17-154.31Zm-370.24,249.63V239.12l166.42,95.85-166.42,95.85Z" style="fill:#e8e8e8;"/></svg>