<?xml version="1.0" encoding="UTF-8"?><svg id="a" xmlns="http://www.w3.org/2000/svg" viewBox="0 0 1576 1280"><path d="M1576,152c-44.7,65.3-98.7,121-162,167,.7,9.3,1,23.3,1,42,0,86.7-12.7,173.2-38,259.5s-63.8,169.2-115.5,248.5-113.2,149.5-184.5,210.5-157.3,109.7-258,146-208.3,54.5-323,54.5c-180.7,0-346-48.3-496-145,23.3,2.7,49.3,4,78,4,150,0,283.7-46,401-138-70-1.3-132.7-22.8-188-64.5s-93.3-94.8-114-159.5c22,3.3,42.3,5,61,5,28.7,0,57-3.7,85-11-74.7-15.3-136.5-52.5-185.5-111.5s-73.5-127.5-73.5-205.5v-4c45.3,25.3,94,39,146,41-44-29.3-79-67.7-105-115s-39-98.7-39-154c0-58.7,14.7-113,44-163,80.7,99.3,178.8,178.8,294.5,238.5,115.7,59.7,239.5,92.8,371.5,99.5-5.3-25.3-8-50-8-74,0-89.3,31.5-165.5,94.5-228.5S1001.7,0,1091,0s172,34,236,102c72.7-14,141-40,205-78-24.7,76.7-72,136-142,178,62-6.7,124-23.3,186-50Z" style="fill:#fff;"/></svg>